<?xml version="1.0" encoding="UTF-8"?>
<svg width="260px" height="260px" viewBox="0 0 260 260" version="1.1" xmlns="http://www.w3.org/2000/svg" xmlns:xlink="http://www.w3.org/1999/xlink">
    <!-- Generator: Sketch 52.5 (67469) - http://www.bohemiancoding.com/sketch -->
    <title>favicon</title>
    <desc>Created with Sketch.</desc>
    <g id="favicon" stroke="none" stroke-width="1" fill="none" fill-rule="evenodd">
        <path d="M155.51049,104.046196 C155.51049,72.8845109 148.125874,56.0706522 131.118881,56.0706522 C117.692308,56.0706522 111.65035,67.9524457 110.307692,82.076087 L110.307692,121.980978 C111.874126,143.502717 121.048951,152.694293 132.685315,152.694293 C147.006993,152.694293 155.51049,139.019022 155.51049,104.046196 Z M194,101.355978 C194,141.709239 167.370629,155.608696 137.384615,155.608696 C126.195804,155.608696 117.020979,153.366848 110.307692,149.555707 L110.307692,187.66712 C110.307692,199.997283 111.65035,208.067935 119.482517,210.085598 L119.482517,213 L68.6853147,213 L68.6853147,210.085598 C77.1888112,207.619565 77.4125874,199.100543 77.4125874,187.66712 L77.4125874,73.5570652 C77.4125874,65.7105978 75.1748252,63.46875 66,60.1059783 L66,57.1915761 L110.307692,48 L110.307692,65.9347826 C117.020979,53.8288043 130.895105,48 146.559441,48 C174.531469,48 194,69.9701087 194,101.355978 Z" id="prime" fill="#000000"></path>
    </g>
</svg>