<?xml version="1.0" encoding="UTF-8"?>
<svg width="87px" height="31px" viewBox="0 0 87 31" version="1.1" xmlns="http://www.w3.org/2000/svg" xmlns:xlink="http://www.w3.org/1999/xlink">
    <!-- Generator: Sketch 52.5 (67469) - http://www.bohemiancoding.com/sketch -->
    <title>prime</title>
    <desc>Created with Sketch.</desc>
    <g id="Symbols" stroke="none" stroke-width="1" fill="none" fill-rule="evenodd">
        <g id="heaer" transform="translate(-1.000000, -4.000000)" fill="#000000">
            <path d="M14.312,18.928 C14.312,14.48 13.256,12.08 10.824,12.08 C8.904,12.08 8.04,13.776 7.848,15.792 L7.848,21.488 C8.072,24.56 9.384,25.872 11.048,25.872 C13.096,25.872 14.312,23.92 14.312,18.928 Z M19.816,18.544 C19.816,24.304 16.008,26.288 11.72,26.288 C10.12,26.288 8.808,25.968 7.848,25.424 L7.848,30.864 C7.848,32.624 8.04,33.776 9.16,34.064 L9.16,34.48 L1.896,34.48 L1.896,34.064 C3.112,33.712 3.144,32.496 3.144,30.864 L3.144,14.576 C3.144,13.456 2.824,13.136 1.512,12.656 L1.512,12.24 L7.848,10.928 L7.848,13.488 C8.808,11.76 10.792,10.928 13.032,10.928 C17.032,10.928 19.816,14.064 19.816,18.544 Z M35.08,15.376 C34.088,16.496 32.424,16.656 31.304,15.664 C30.728,15.184 30.408,14.544 30.408,13.904 C30.408,13.52 29.256,13.776 28.008,15.728 L28.008,22.256 C28.008,24.016 28.168,25.296 29.32,25.616 L29.32,26 L21.992,26 L21.992,25.616 C23.24,25.232 23.272,23.888 23.272,22.256 L23.272,14.8 C23.272,13.68 22.92,13.232 21.608,12.656 L21.608,12.24 L28.008,10.928 L28.008,14.992 C29.992,11.952 31.112,11.504 31.976,11.12 C32.84,10.736 34.056,10.928 34.824,11.6 C35.944,12.56 36.04,14.288 35.08,15.376 Z M37.928,6.64 C37.928,5.168 39.08,4.016 40.552,4.016 C41.992,4.016 43.176,5.168 43.176,6.64 C43.176,8.08 41.992,9.232 40.552,9.232 C39.08,9.232 37.928,8.08 37.928,6.64 Z M44.552,25.616 L44.552,26 L37.256,26 L37.256,25.616 C38.472,25.232 38.536,23.888 38.536,22.256 L38.536,14.8 C38.536,13.68 38.184,13.232 36.872,12.656 L36.872,12.24 L43.24,10.928 L43.24,22.256 C43.24,24.016 43.4,25.296 44.552,25.616 Z M71.176,25.616 L71.176,26 L63.88,26 L63.88,25.616 C65.096,25.264 65.16,23.856 65.16,22.224 L65.16,15.92 C65.16,14.096 64.552,13.232 63.272,13.232 C62.28,13.232 61.128,14.256 61.096,15.312 L61.096,22.224 C61.096,23.984 61.288,25.328 62.408,25.616 L62.408,26 L55.112,26 L55.112,25.616 C56.328,25.264 56.392,23.856 56.392,22.224 L56.392,15.92 C56.392,14.096 55.816,13.232 54.536,13.232 C53.576,13.232 52.584,14.256 52.392,15.152 L52.392,22.288 C52.392,24.048 52.552,25.296 53.704,25.616 L53.704,26 L46.408,26 L46.408,25.616 C47.624,25.264 47.656,23.92 47.656,22.288 L47.656,14.864 C47.656,13.744 47.336,13.232 46.024,12.656 L46.024,12.24 L52.392,10.928 L52.392,14.096 C53.192,12.336 54.856,10.928 56.744,10.928 C58.984,10.928 60.648,11.856 61.032,14.288 C61.736,12.368 63.56,10.928 65.512,10.928 C68.04,10.928 69.864,11.952 69.864,15.792 L69.864,22.224 C69.864,23.984 70.056,25.328 71.176,25.616 Z M77.864,17.904 L83.048,17.904 C83.048,13.872 82.184,11.344 80.584,11.344 C78.888,11.344 77.864,14.832 77.864,17.904 Z M87.304,18.32 L77.864,18.32 C77.992,22.32 79.56,23.76 81.704,24.24 C83.368,24.624 85.736,23.824 86.44,21.712 L86.856,21.872 C86.408,23.888 84.296,26.288 80.136,26.288 C75.944,26.288 72.808,22.704 72.808,18.672 C72.808,13.68 76.424,10.928 80.584,10.928 C84.616,10.928 87.304,12.816 87.304,18.32 Z" id="prime"></path>
        </g>
    </g>
</svg>